<?xml version="1.0" encoding="utf-8"?>
<!-- Generator: Adobe Illustrator 19.2.1, SVG Export Plug-In . SVG Version: 6.00 Build 0)  -->
<!DOCTYPE svg PUBLIC "-//W3C//DTD SVG 1.1//EN" "http://www.w3.org/Graphics/SVG/1.1/DTD/svg11.dtd">
<svg version="1.1" id="Layer_1" xmlns="http://www.w3.org/2000/svg" xmlns:xlink="http://www.w3.org/1999/xlink" x="0px" y="0px"
	 viewBox="0 0 621.3 100" style="enable-background:new 0 0 621.3 100;" xml:space="preserve">
<style type="text/css">
	.st0{fill:#222944;}
	.st1{fill:#222944;stroke:#222944;stroke-miterlimit:10;}
</style>
<path class="st0" d="M104.9,25.2c-2.2-2.1-4.8-3.8-7.8-5c-3-1.2-6.2-1.8-9.7-1.8c-3.5,0-6.7,0.6-9.7,1.8c-3,1.2-5.6,2.8-7.8,5
	c-2.2,2.1-3.9,4.6-5.2,7.5c-1.3,2.9-1.9,6-1.9,9.4c0,3.3,0.6,6.5,1.9,9.3c1.3,2.9,3,5.4,5.2,7.5c2.2,2.1,4.8,3.8,7.8,5
	c3,1.2,6.2,1.8,9.7,1.8c3.5,0,6.7-0.6,9.7-1.8c3-1.2,5.6-2.9,7.8-5c2.2-2.1,3.9-4.6,5.2-7.5c1.3-2.9,1.9-6,1.9-9.3
	c0-3.4-0.6-6.5-1.9-9.4C108.8,29.8,107.1,27.3,104.9,25.2z M100.3,47.9c-0.7,1.8-1.6,3.3-2.9,4.7c-1.2,1.3-2.7,2.4-4.4,3.1
	c-1.7,0.7-3.6,1.1-5.6,1.1c-2.1,0-4-0.4-5.7-1.1c-1.7-0.7-3.2-1.8-4.4-3.1c-1.2-1.3-2.2-2.9-2.9-4.7c-0.7-1.8-1-3.7-1-5.8
	s0.3-4,1-5.9c0.7-1.8,1.6-3.4,2.9-4.7c1.2-1.3,2.7-2.3,4.4-3.1c1.7-0.7,3.6-1.1,5.7-1.1c2,0,3.9,0.4,5.6,1.1
	c1.7,0.7,3.2,1.8,4.4,3.1c1.2,1.3,2.2,2.9,2.9,4.7c0.7,1.8,1,3.8,1,5.9S101,46.2,100.3,47.9z"/>
<path class="st0" d="M160.9,25.2c-2.2-2.1-4.8-3.8-7.8-5c-3-1.2-6.2-1.8-9.7-1.8c-3.5,0-6.7,0.6-9.7,1.8c-3,1.2-5.6,2.8-7.8,5
	c-2.2,2.1-3.9,4.6-5.2,7.5c-1.3,2.9-1.9,6-1.9,9.4c0,3.3,0.6,6.5,1.9,9.3c1.3,2.9,3,5.4,5.2,7.5c2.2,2.1,4.8,3.8,7.8,5
	c3,1.2,6.2,1.8,9.7,1.8c3.5,0,6.7-0.6,9.7-1.8c3-1.2,5.6-2.9,7.8-5c2.2-2.1,3.9-4.6,5.2-7.5c1.3-2.9,1.9-6,1.9-9.3
	c0-3.4-0.6-6.5-1.9-9.4C164.8,29.8,163.1,27.3,160.9,25.2z M156.3,47.9c-0.7,1.8-1.6,3.3-2.9,4.7c-1.2,1.3-2.7,2.4-4.4,3.1
	c-1.7,0.7-3.6,1.1-5.6,1.1c-2.1,0-4-0.4-5.7-1.1c-1.7-0.7-3.2-1.8-4.4-3.1c-1.2-1.3-2.2-2.9-2.9-4.7c-0.7-1.8-1-3.7-1-5.8
	s0.3-4,1-5.9c0.7-1.8,1.6-3.4,2.9-4.7c1.2-1.3,2.7-2.3,4.4-3.1c1.7-0.7,3.6-1.1,5.7-1.1c2,0,3.9,0.4,5.6,1.1
	c1.7,0.7,3.2,1.8,4.4,3.1c1.2,1.3,2.2,2.9,2.9,4.7c0.7,1.8,1,3.8,1,5.9S157,46.2,156.3,47.9z"/>
<path class="st0" d="M505.7,0c-1.7,0-3.2,0.6-4.4,1.8c-1.2,1.2-1.8,2.7-1.8,4.4c0,1.7,0.6,3.2,1.8,4.4c1.2,1.2,2.7,1.8,4.4,1.8
	c1.7,0,3.2-0.6,4.4-1.8c1.2-1.2,1.8-2.7,1.8-4.4c0-1.7-0.6-3.2-1.8-4.4C508.9,0.6,507.4,0,505.7,0z"/>
<path class="st0" d="M508.9,19.7h-6.3c-1.1,0-1.9,0.9-1.9,1.9v41c0,1.1,0.9,1.9,1.9,1.9h6.3c1.1,0,1.9-0.9,1.9-1.9v-41
	C510.8,20.5,509.9,19.7,508.9,19.7z"/>
<path class="st0" d="M451.6,42c-2.7-2.1-6.6-3.4-11.5-4.1l-9.1-1.2c-2.6-0.3-4.5-0.9-5.8-1.8c-1.2-0.8-1.8-2.2-1.8-3.5
	c0.1-3.5,3.5-5.3,10.4-5.3c2.5,0,4.7,0.2,6.6,0.6c1.9,0.4,3.5,0.8,4.9,1.3c1.4,0.5,2.5,1,3.3,1.5c0.8,0.5,1.5,1.2,2.1,1
	c0.6-0.2,1-1,1.3-1.4c0.3-0.4,2.1-3.2,2.3-3.9c0.4-1.6-2.7-3.4-6.1-4.7c-3.4-1.4-8.2-2.1-14.4-2.1c-3.7,0-6.8,0.4-9.4,1.1
	c-2.6,0.7-4.7,1.8-6.3,3.1s-2.8,2.8-3.5,4.5c-0.7,1.7-1.1,3.5-1.1,5.4c0,2.2,0.4,4.1,1.2,5.7c0.8,1.6,1.9,2.9,3.4,4
	c1.4,1.1,3.1,1.9,5.1,2.5c2,0.6,4.2,1.1,6.6,1.3l7,0.8c3.2,0.4,5.5,1,6.7,1.8c1.3,0.9,1.9,2.1,1.9,3.8c0,2-1,3.4-3,4.2
	c-2,0.8-4.5,1.2-7.6,1.2c-2.4,0-4.6-0.2-6.6-0.5c-2-0.4-3.8-0.8-5.4-1.3c-1.6-0.5-2.9-1-4-1.5c-0.3-0.1-0.6-0.2-0.8-0.4
	c-0.8-0.4-1.8-0.1-2.3,0.7l-2.2,3.9c-0.5,0.9-0.2,1.9,0.7,2.4c0.2,0.1,0.5,0.3,0.8,0.4c1.2,0.6,2.8,1.2,4.7,1.8
	c1.9,0.6,4.2,1.2,6.8,1.7c2.6,0.5,5.5,0.7,8.8,0.7c6.7,0,11.8-1.3,15.3-4c3.5-2.7,5.3-6.3,5.3-10.7C455.7,47.1,454.3,44.1,451.6,42z
	"/>
<path class="st0" d="M562,25.2c-2.2-2.1-4.8-3.8-7.8-5c-3-1.2-6.2-1.8-9.7-1.8c-3.5,0-6.7,0.6-9.7,1.8c-3,1.2-5.6,2.8-7.8,5
	c-2.2,2.1-3.9,4.6-5.2,7.5c-1.3,2.9-1.9,6-1.9,9.4c0,3.3,0.6,6.5,1.9,9.3c1.3,2.9,3,5.4,5.2,7.5c2.2,2.1,4.8,3.8,7.8,5
	c3,1.2,6.2,1.8,9.7,1.8c3.5,0,6.7-0.6,9.7-1.8c3-1.2,5.6-2.9,7.8-5c2.2-2.1,3.9-4.6,5.2-7.5c1.3-2.9,1.9-6,1.9-9.3
	c0-3.4-0.6-6.5-1.9-9.4C566,29.8,564.2,27.3,562,25.2z M557.4,47.9c-0.7,1.8-1.6,3.3-2.9,4.7c-1.2,1.3-2.7,2.4-4.4,3.1
	c-1.7,0.7-3.6,1.1-5.6,1.1c-2.1,0-4-0.4-5.7-1.1c-1.7-0.7-3.2-1.8-4.4-3.1c-1.2-1.3-2.2-2.9-2.9-4.7c-0.7-1.8-1-3.7-1-5.8
	s0.3-4,1-5.9c0.7-1.8,1.6-3.4,2.9-4.7c1.2-1.3,2.7-2.3,4.4-3.1c1.7-0.7,3.6-1.1,5.7-1.1c2,0,3.9,0.4,5.6,1.1
	c1.7,0.7,3.2,1.8,4.4,3.1c1.2,1.3,2.2,2.9,2.9,4.7c0.7,1.8,1,3.8,1,5.9S558.1,46.2,557.4,47.9z"/>
<path class="st0" d="M619.7,29.5c-1.1-2.4-2.6-4.4-4.5-6c-1.9-1.6-4.2-2.9-6.9-3.8c-2.7-0.9-5.6-1.3-8.8-1.3c-3.2,0-6.1,0.4-8.7,1.3
	c-2.7,0.9-4.9,2.1-6.9,3.8c-1.9,1.6-3.5,3.6-4.6,6c-1.1,2.4-1.7,5-1.7,8v25.1c0,1.1,0.9,2,2,2h6.2c1.1,0,2-0.9,2-2V40.1
	c0-4.1,1-7.1,2.9-9.3c1.9-2.1,4.8-3.2,8.7-3.2c3.8,0,6.7,1.1,8.7,3.2c2,2.1,3,5.2,3,9.3v22.5c0,1.1,0.9,2,2,2h6.2c1.1,0,2-0.9,2-2
	V37.5C621.3,34.5,620.8,31.9,619.7,29.5z"/>
<path class="st0" d="M353.3,18.5h-6.2c-1.1,0-2,0.9-2,2V43c0,4.1-1,7.1-2.9,9.3c-1.9,2.1-4.8,3.2-8.7,3.2c-3.8,0-6.7-1.1-8.7-3.2
	c-2-2.1-3-5.2-3-9.3V31.1V20.5c0-1.1-0.9-2-2-2h-6.2c-1.1,0-2,0.9-2,2v10.6v14.5c0,3,0.5,5.6,1.6,8c1.1,2.4,2.6,4.4,4.5,6
	c1.9,1.6,4.2,2.9,6.9,3.8c2.7,0.9,5.6,1.3,8.8,1.3c3.2,0,6.1-0.4,8.7-1.3c2.7-0.9,4.9-2.1,6.9-3.8c1.9-1.6,3.5-3.6,4.6-6
	c1.1-2.4,1.7-5,1.7-8V20.5C355.4,19.4,354.5,18.5,353.3,18.5z"/>
<path class="st0" d="M491.8,56.2c-0.5-0.9-1.6-1.2-2.6-0.8c-0.5,0.2-1,0.4-1.6,0.7c-1.5,0.5-3.1,0.8-4.8,0.8c-1.1,0-2.1-0.1-3.1-0.4
	c-1-0.2-1.8-0.7-2.6-1.3c-0.7-0.6-1.3-1.4-1.7-2.4c-0.4-1-0.6-2.3-0.6-3.8V29.1h1h12.9h2.8c1.1,0,2-0.9,2-2v-5.4c0-1.1-0.9-2-2-2
	h-3.7h-12h-1v-3.2V9.8V9c0-1.1-0.9-2-2-2h-6.2c-1.1,0-2,0.9-2,2v2.7v4.8v34.6c0,4.4,1.3,8,4,10.7c2.7,2.7,6.6,4.1,11.9,4.1
	c1.8,0,3.5-0.2,5.1-0.5c1.6-0.3,3-0.7,4.2-1.2c1.3-0.5,2.3-1,3.2-1.5l0.4-0.2c0.9-0.6,1.2-1.8,0.6-2.7L491.8,56.2z"/>
<path class="st0" d="M402.5,22.9c-1.6-1.3-3.7-2.4-6-3.2c-2.4-0.8-5.1-1.2-8.2-1.2c-3.5,0-6.8,0.6-9.7,1.7s-5.5,2.8-7.7,4.9
	c-2.2,2.1-3.9,4.7-5.1,7.6c-1.2,3-1.8,6.2-1.8,9.8c0,3.8,0.6,7.1,1.9,10c1.3,2.9,3,5.3,5.1,7.3c2.2,2,4.7,3.5,7.6,4.5
	c2.9,1,6,1.5,9.3,1.5c2.4,0,4.6-0.2,6.6-0.5c2-0.4,3.8-0.8,5.3-1.3c0.6-0.2,1.2-0.4,1.7-0.6c0.8-0.3,1.5-0.6,2.1-0.9
	c0.4-0.2,0.8-0.5,1.2-0.6c0.6-0.3,0.8-1.1,0.5-1.7l-2.6-5l0,0c-0.3-0.6-1-0.8-1.6-0.5l-0.6,0.3c-0.7,0.4-1.6,0.7-2.7,1.1
	c-1,0.4-2.2,0.7-3.5,0.9c-1.3,0.2-2.7,0.4-4.3,0.4c-4.6,0-8.1-0.9-10.6-2.8c-2.5-1.9-3.9-4.3-4.4-7.4c1.2,0.1,2.3,0.1,3.4,0.1
	c1,0,2.2,0,3.4,0c5.1,0,9.4-0.3,12.7-1c3.3-0.7,6-1.6,8-2.9c2-1.2,3.3-2.7,4.1-4.4c0.8-1.7,1.2-3.6,1.2-5.7c0-2-0.4-3.9-1.3-5.7
	C405.4,25.8,404.2,24.2,402.5,22.9z M397,35.7c-0.4,0.8-1.1,1.6-2.2,2.2c-1.1,0.7-2.7,1.2-4.7,1.6c-2,0.4-4.7,0.6-8,0.6
	c-1.3,0-2.5,0-3.8,0c-1.3,0-2.6,0-3.9-0.1c0.1-1.7,0.4-3.4,1-5.1c0.6-1.7,1.5-3.1,2.6-4.4c1.1-1.3,2.5-2.3,4.2-3.1
	c1.7-0.8,3.6-1.2,5.8-1.2c2.7,0,4.9,0.6,6.8,1.7c1.8,1.1,2.7,2.8,2.7,5.1C397.6,34,397.4,34.9,397,35.7z"/>
<path class="st0" d="M54.9,6c0,0-3.8-2.3-4.4-2.6c-0.3-0.2-0.6-0.3-0.9-0.5c-1-0.5-2.3-0.9-3.8-1.4c-1.5-0.4-3.2-0.8-5.2-1.1
	C38.6,0.1,36.4,0,34,0c-3.2,0-6.2,0.4-9.1,1c-1.5,0.3-3,0.7-4.4,1.2c-4.1,1.5-7.7,3.6-10.8,6.4c-3,2.8-5.4,6.2-7.2,10.2
	C0.9,22.9,0,27.4,0,32.4c0,5.3,0.9,10,2.6,14s4.2,7.4,7.3,10.1c3.1,2.7,6.9,4.7,11.2,6.1c4.4,1.4,9.1,2.1,14.3,2.1
	c2.3,0,4.6-0.1,6.7-0.2c2.1-0.1,4.1-0.3,5.9-0.4c1.8-0.2,3.3-0.3,4.5-0.5l0.2,0c1.4-0.2,2.4-1.3,2.4-2.7V34.8c0-4.1-2.1-6.1-6.3-6.1
	H32c-1.1,0-2.2,0.7-2.6,1.8c-0.3,0.9-0.5,1.9-0.5,3.1c0,3.1,1.8,4.7,5.3,4.7H42c1.5,0,2.8,1.2,2.8,2.8v11c0,1.4-1.1,2.6-2.5,2.8
	c-0.2,0-0.3,0-0.5,0C40.1,54.9,38.2,55,36,55c-3.7,0-7.1-0.4-10.1-1.3c-3-0.9-5.6-2.2-7.8-4.1c-2.2-1.8-3.9-4.2-5.1-7
	s-1.8-6.3-1.8-10.2c0-3.5,0.6-6.7,1.7-9.5c1.1-2.8,2.7-5.2,4.7-7.2c2-2,4.4-3.5,7.2-4.5s5.8-1.6,9.1-1.6c2.1,0,4.1,0.2,5.9,0.6
	l0.1,0c2.4,0.5,4.7,1.5,6.7,2.8l3,1.8c0.2,0.1,0.4,0.2,0.6,0.2c0.8,0.2,1.7-0.2,2.1-0.9l2.7-4.5l0.5-0.8C56.1,7.8,55.8,6.6,54.9,6z"
	/>
<polygon class="st1" points="215.1,2.1 215.1,2.2 215.1,2 "/>
<g>
	<path class="st0" d="M225.8,17.4v-1.2V6.3c0-1.2-0.9-2.1-2.1-2.1h-6.5c-1.1,0-2,0.9-2.1,2l0,0.2v8v3.1V18c3.6,0.5,7.2,0.7,10.7,0.8
		V17.4z"/>
	<path class="st0" d="M215.1,13.8v11.5c-1.6-2-3.8-3.7-6.5-5.2c-2.8-1.4-6-2.1-9.6-2.1c-3.5,0-6.7,0.6-9.6,1.8
		c-2.9,1.2-5.5,3-7.7,5.2c-2.2,2.2-3.9,4.9-5.1,7.9c-1.2,3.1-1.8,6.4-1.8,10.1c0,3.6,0.6,6.9,1.9,10c1.3,3.1,3.1,5.7,5.3,7.9
		c2.3,2.2,5,3.9,8.1,5.2c3.1,1.3,6.5,1.9,10.3,1.9c3.7,0,7-0.6,10.1-1.7c3.1-1.1,5.8-2.8,8-5.1c2.3-2.3,4-5.1,5.3-8.5
		c1.3-3.4,1.9-7.4,1.9-12V14.6C222.3,14.5,218.7,14.3,215.1,13.8z M214,49.3c-0.7,1.9-1.7,3.5-3,4.8c-1.3,1.3-2.8,2.4-4.6,3.1
		c-1.8,0.8-3.8,1.1-5.9,1.1c-2.2,0-4.2-0.4-6-1.2c-1.8-0.8-3.3-1.9-4.6-3.2c-1.3-1.4-2.3-3-3-4.8c-0.7-1.9-1-3.9-1-6.1
		c0-2.2,0.3-4.3,1-6.1c0.7-1.9,1.7-3.5,3-4.9c1.3-1.4,2.8-2.4,4.6-3.2c1.8-0.8,3.7-1.2,6-1.2c2.1,0,4.1,0.4,5.9,1.2
		c1.8,0.8,3.3,1.9,4.6,3.3c1.3,1.4,2.3,3,3,4.9c0.7,1.9,1.1,3.9,1.1,6C215.1,45.4,214.8,47.4,214,49.3z"/>
</g>
<g>
	<path class="st0" d="M276.3,21.4c-0.9-0.4-2,0.1-2.4,1L268,37.1l-5.9-3.8c-0.7-0.4-1.6-0.4-2.3,0.2c-0.8,0.7-0.8,1.9-0.2,2.6l7.1,8
		c0.2,0.2,0.4,0.4,0.7,0.6c0.6,0.4,1.3,0.6,2,0.5c1.6,0.1,3-0.9,3.4-2.5l4.6-19.1C277.6,22.6,277.1,21.7,276.3,21.4z"/>
	<path class="st0" d="M300.3,21.4c-1.7-4-4-7.4-7-10.3c-3-2.9-6.5-5.2-10.5-6.9c-4-1.7-8.3-2.5-13-2.5c-4.7,0-9,0.8-13,2.5
		c-4,1.7-7.5,3.9-10.5,6.9c-3,2.9-5.3,6.4-7,10.3c-1.7,4-2.5,8.3-2.5,12.9c0,4.6,0.8,8.9,2.5,12.9c1.7,4,4,7.4,7,10.3
		c2.5,2.4,5.3,4.4,8.4,5.9c0.7,0.3,1.3,0.7,2,0.9c4,1.6,8.3,2.5,13,2.5l0,0c4.7,0,9-0.8,13-2.5c3.2-1.3,6.1-3.1,8.7-5.3
		c0.6-0.5,1.2-1,1.8-1.6c2.1-2.1,3.8-4.4,5.3-6.9c0.6-1.1,1.2-2.2,1.7-3.4c1.7-4,2.5-8.3,2.5-12.9C302.9,29.6,302,25.3,300.3,21.4z
		 M254.3,50.6c-2-2-3.5-4.4-4.6-7.2c-1.1-2.8-1.6-5.8-1.6-9.1c0-3.3,0.5-6.4,1.6-9.2c1.1-2.8,2.6-5.2,4.6-7.2c2-2,4.3-3.6,6.9-4.7
		c2.7-1.1,5.5-1.7,8.7-1.7c3.1,0,6,0.6,8.7,1.7c2.7,1.1,4.9,2.7,6.9,4.7c1.9,2,3.4,4.4,4.6,7.2c1.1,2.8,1.7,5.9,1.7,9.2
		c0,3.3-0.6,6.3-1.7,9.1c-1.1,2.8-2.6,5.2-4.6,7.2c-1.9,2-4.2,3.6-6.9,4.7c-2.6,1.1-5.5,1.7-8.7,1.7c-3.1,0-6-0.6-8.7-1.7
		C258.5,54.2,256.2,52.6,254.3,50.6z"/>
	<path class="st0" d="M298.6,58.4c-0.4-0.1-0.8,0.1-1.1,0.4c-0.8,1-1.6,1.9-2.4,2.7c-0.6,0.6-1.2,1.1-1.8,1.6
		c-2.5,2.2-5.4,4-8.6,5.3c-4,1.7-8.3,2.5-13,2.6l0,0c-3.3,0-6.5-0.4-9.4-1.2l-0.3-0.1c-1.2-0.3-2,1.1-1.2,1.9l28.4,27.1l0.3,0.3
		c1.8,1.7,4.7,0.7,5-1.8l5.2-37.6C299.7,59,299.2,58.5,298.6,58.4z"/>
</g>
</svg>
