<?xml version="1.0" encoding="utf-8"?>
<!-- Generator: Adobe Illustrator 19.2.1, SVG Export Plug-In . SVG Version: 6.00 Build 0)  -->
<!DOCTYPE svg PUBLIC "-//W3C//DTD SVG 1.1//EN" "http://www.w3.org/Graphics/SVG/1.1/DTD/svg11.dtd">
<svg version="1.1" id="Layer_1" xmlns="http://www.w3.org/2000/svg" xmlns:xlink="http://www.w3.org/1999/xlink" x="0px" y="0px"
	 viewBox="0 0 623.2 100" style="enable-background:new 0 0 623.2 100;" xml:space="preserve">
<style type="text/css">
	.st0{fill:none;}
	.st1{fill:#222944;}
</style>
<path class="st0" d="M97.4,31.6c-1.2-1.3-2.7-2.3-4.4-3.1c-1.7-0.7-3.6-1.1-5.6-1.1c-2.1,0-4,0.4-5.7,1.1c-1.7,0.7-3.2,1.8-4.4,3.1
	c-1.2,1.3-2.2,2.9-2.9,4.7c-0.7,1.8-1,3.8-1,5.9s0.3,4,1,5.8c0.7,1.8,1.6,3.3,2.9,4.7c1.2,1.3,2.7,2.4,4.4,3.1
	c1.7,0.7,3.6,1.1,5.7,1.1c2,0,3.9-0.4,5.6-1.1c1.7-0.7,3.2-1.8,4.4-3.1c1.2-1.3,2.2-2.9,2.9-4.7c0.7-1.8,1-3.7,1-5.8s-0.3-4-1-5.9
	C99.6,34.5,98.7,32.9,97.4,31.6z"/>
<path class="st0" d="M287.2,17.9c-1.9-2-4.2-3.6-6.9-4.7c-2.6-1.1-5.5-1.7-8.7-1.7s-6,0.6-8.7,1.7c-2.6,1.1-4.9,2.7-6.9,4.7
	c-2,2-3.5,4.4-4.6,7.2c-1.1,2.8-1.6,5.9-1.6,9.2c0,3.3,0.5,6.3,1.6,9.1c1.1,2.8,2.6,5.2,4.6,7.2c2,2,4.3,3.6,6.9,4.7
	c2.7,1.1,5.5,1.7,8.7,1.7s6-0.6,8.7-1.7c2.7-1.1,4.9-2.7,6.9-4.7c1.9-2,3.4-4.4,4.6-7.2c1.1-2.8,1.7-5.8,1.7-9.1
	c0-3.3-0.6-6.4-1.7-9.2C290.7,22.3,289.1,19.9,287.2,17.9z M279.3,23.5l-4.6,19.1c-0.4,1.6-1.8,2.6-3.4,2.5c-0.7,0-1.4-0.1-2-0.5
	c-0.2-0.2-0.5-0.4-0.7-0.6l-7.1-8c-0.7-0.8-0.6-1.9,0.2-2.6c0.6-0.6,1.6-0.6,2.3-0.2l5.9,3.8l5.9-14.7c0.4-0.9,1.4-1.4,2.4-1
	C279,21.7,279.5,22.6,279.3,23.5z"/>
<path class="st0" d="M211.1,32.1c-1.3-1.4-2.8-2.5-4.6-3.3c-1.8-0.8-3.8-1.2-5.9-1.2c-2.2,0-4.2,0.4-6,1.2c-1.8,0.8-3.3,1.9-4.6,3.2
	c-1.3,1.4-2.3,3-3,4.9c-0.7,1.9-1,3.9-1,6.1c0,2.2,0.3,4.2,1,6.1c0.7,1.9,1.7,3.5,3,4.8c1.3,1.4,2.8,2.4,4.6,3.2
	c1.8,0.8,3.7,1.2,6,1.2c2.1,0,4.1-0.4,5.9-1.1c1.8-0.8,3.3-1.8,4.6-3.1c1.3-1.3,2.3-2.9,3-4.8c0.7-1.9,1.1-4,1.1-6.2
	c0-2.1-0.4-4.2-1.1-6C213.3,35.2,212.3,33.5,211.1,32.1z"/>
<path class="st0" d="M153.4,31.6c-1.2-1.3-2.7-2.3-4.4-3.1c-1.7-0.7-3.6-1.1-5.6-1.1c-2.1,0-4,0.4-5.7,1.1c-1.7,0.7-3.2,1.8-4.4,3.1
	c-1.2,1.3-2.2,2.9-2.9,4.7c-0.7,1.8-1,3.8-1,5.9s0.3,4,1,5.8c0.7,1.8,1.6,3.3,2.9,4.7c1.2,1.3,2.7,2.4,4.4,3.1
	c1.7,0.7,3.6,1.1,5.7,1.1c2,0,3.9-0.4,5.6-1.1c1.7-0.7,3.2-1.8,4.4-3.1c1.2-1.3,2.2-2.9,2.9-4.7c0.7-1.8,1-3.7,1-5.8s-0.3-4-1-5.9
	C155.6,34.5,154.6,32.9,153.4,31.6z"/>
<path class="st0" d="M396.7,28c-1.8-1.1-4.1-1.7-6.8-1.7c-2.2,0-4.1,0.4-5.8,1.2c-1.7,0.8-3.1,1.8-4.2,3.1c-1.1,1.3-2,2.8-2.6,4.4
	c-0.6,1.7-1,3.4-1,5.1c1.4,0.1,2.7,0.1,3.9,0.1c1.3,0,2.5,0,3.8,0c3.3,0,5.9-0.2,8-0.6c2-0.4,3.6-1,4.7-1.6c1.1-0.7,1.9-1.4,2.2-2.2
	c0.4-0.8,0.5-1.7,0.5-2.6C399.4,30.9,398.5,29.2,396.7,28z"/>
<path class="st0" d="M556.4,31.6c-1.2-1.3-2.7-2.3-4.4-3.1c-1.7-0.7-3.6-1.1-5.6-1.1c-2.1,0-4,0.4-5.7,1.1c-1.7,0.7-3.2,1.8-4.4,3.1
	c-1.2,1.3-2.2,2.9-2.9,4.7c-0.7,1.8-1,3.8-1,5.9s0.3,4,1,5.8c0.7,1.8,1.6,3.3,2.9,4.7c1.2,1.3,2.7,2.4,4.4,3.1
	c1.7,0.7,3.6,1.1,5.7,1.1c2,0,3.9-0.4,5.6-1.1c1.7-0.7,3.2-1.8,4.4-3.1c1.2-1.3,2.2-2.9,2.9-4.7c0.7-1.8,1-3.7,1-5.8s-0.3-4-1-5.9
	C558.6,34.5,557.7,32.9,556.4,31.6z"/>
<path class="st1" d="M104.9,25.2c-2.2-2.1-4.8-3.8-7.8-5c-3-1.2-6.2-1.8-9.7-1.8c-3.5,0-6.7,0.6-9.7,1.8c-3,1.2-5.6,2.8-7.8,5
	c-2.2,2.1-3.9,4.6-5.2,7.5c-1.3,2.9-1.9,6-1.9,9.4c0,3.3,0.6,6.5,1.9,9.3c1.3,2.9,3,5.4,5.2,7.5c2.2,2.1,4.8,3.8,7.8,5
	c3,1.2,6.2,1.8,9.7,1.8c3.5,0,6.7-0.6,9.7-1.8c3-1.2,5.6-2.9,7.8-5c2.2-2.1,3.9-4.6,5.2-7.5c1.3-2.9,1.9-6,1.9-9.3
	c0-3.4-0.6-6.5-1.9-9.4C108.8,29.8,107.1,27.3,104.9,25.2z M100.3,47.9c-0.7,1.8-1.6,3.3-2.9,4.7c-1.2,1.3-2.7,2.4-4.4,3.1
	c-1.7,0.7-3.6,1.1-5.6,1.1c-2.1,0-4-0.4-5.7-1.1c-1.7-0.7-3.2-1.8-4.4-3.1c-1.2-1.3-2.2-2.9-2.9-4.7c-0.7-1.8-1-3.7-1-5.8
	s0.3-4,1-5.9c0.7-1.8,1.6-3.4,2.9-4.7c1.2-1.3,2.7-2.3,4.4-3.1c1.7-0.7,3.6-1.1,5.7-1.1c2,0,3.9,0.4,5.6,1.1
	c1.7,0.7,3.2,1.8,4.4,3.1c1.2,1.3,2.2,2.9,2.9,4.7c0.7,1.8,1,3.8,1,5.9S101,46.2,100.3,47.9z"/>
<path class="st1" d="M160.9,25.2c-2.2-2.1-4.8-3.8-7.8-5c-3-1.2-6.2-1.8-9.7-1.8c-3.5,0-6.7,0.6-9.7,1.8c-3,1.2-5.6,2.8-7.8,5
	c-2.2,2.1-3.9,4.6-5.2,7.5c-1.3,2.9-1.9,6-1.9,9.4c0,3.3,0.6,6.5,1.9,9.3c1.3,2.9,3,5.4,5.2,7.5c2.2,2.1,4.8,3.8,7.8,5
	c3,1.2,6.2,1.8,9.7,1.8c3.5,0,6.7-0.6,9.7-1.8c3-1.2,5.6-2.9,7.8-5c2.2-2.1,3.9-4.6,5.2-7.5c1.3-2.9,1.9-6,1.9-9.3
	c0-3.4-0.6-6.5-1.9-9.4C164.8,29.8,163.1,27.3,160.9,25.2z M156.3,47.9c-0.7,1.8-1.6,3.3-2.9,4.7c-1.2,1.3-2.7,2.4-4.4,3.1
	c-1.7,0.7-3.6,1.1-5.6,1.1c-2.1,0-4-0.4-5.7-1.1c-1.7-0.7-3.2-1.8-4.4-3.1c-1.2-1.3-2.2-2.9-2.9-4.7c-0.7-1.8-1-3.7-1-5.8
	s0.3-4,1-5.9c0.7-1.8,1.6-3.4,2.9-4.7c1.2-1.3,2.7-2.3,4.4-3.1c1.7-0.7,3.6-1.1,5.7-1.1c2,0,3.9,0.4,5.6,1.1
	c1.7,0.7,3.2,1.8,4.4,3.1c1.2,1.3,2.2,2.9,2.9,4.7c0.7,1.8,1,3.8,1,5.9S157,46.2,156.3,47.9z"/>
<path class="st1" d="M507.6,0c-1.7,0-3.2,0.6-4.4,1.8c-1.2,1.2-1.8,2.7-1.8,4.4c0,1.7,0.6,3.2,1.8,4.4c1.2,1.2,2.7,1.8,4.4,1.8
	c1.7,0,3.2-0.6,4.4-1.8c1.2-1.2,1.8-2.7,1.8-4.4c0-1.7-0.6-3.2-1.8-4.4C510.8,0.6,509.3,0,507.6,0z"/>
<path class="st1" d="M510.7,19.7h-6.3c-1.1,0-1.9,0.9-1.9,1.9v41c0,1.1,0.9,1.9,1.9,1.9h6.3c1.1,0,1.9-0.9,1.9-1.9v-41
	C512.7,20.5,511.8,19.7,510.7,19.7z"/>
<path class="st1" d="M453.5,42c-2.7-2.1-6.6-3.4-11.5-4.1l-9.1-1.2c-2.6-0.3-4.5-0.9-5.8-1.8c-1.2-0.8-1.8-2.2-1.8-3.5
	c0.1-3.5,3.5-5.3,10.4-5.3c2.5,0,4.7,0.2,6.6,0.6c1.9,0.4,3.5,0.8,4.9,1.3c1.4,0.5,2.5,1,3.3,1.5c0.8,0.5,1.5,1.2,2.1,1
	c0.6-0.2,1-1,1.3-1.4c0.3-0.4,2.1-3.2,2.3-3.9c0.4-1.6-2.7-3.4-6.1-4.7c-3.4-1.4-8.2-2.1-14.4-2.1c-3.7,0-6.8,0.4-9.4,1.1
	c-2.6,0.7-4.7,1.8-6.3,3.1c-1.6,1.3-2.8,2.8-3.5,4.5c-0.7,1.7-1.1,3.5-1.1,5.4c0,2.2,0.4,4.1,1.2,5.7c0.8,1.6,1.9,2.9,3.4,4
	c1.4,1.1,3.1,1.9,5.1,2.5c2,0.6,4.2,1.1,6.6,1.3l7,0.8c3.2,0.4,5.5,1,6.7,1.8c1.3,0.9,1.9,2.1,1.9,3.8c0,2-1,3.4-3,4.2
	c-2,0.8-4.5,1.2-7.6,1.2c-2.4,0-4.6-0.2-6.6-0.5c-2-0.4-3.8-0.8-5.4-1.3c-1.6-0.5-2.9-1-4-1.5c-0.3-0.1-0.6-0.2-0.8-0.4
	c-0.8-0.4-1.8-0.1-2.3,0.7l-2.2,3.9c-0.5,0.9-0.2,1.9,0.7,2.4c0.2,0.1,0.5,0.3,0.8,0.4c1.2,0.6,2.8,1.2,4.7,1.8
	c1.9,0.6,4.2,1.2,6.8,1.7c2.6,0.5,5.5,0.7,8.8,0.7c6.7,0,11.8-1.3,15.3-4c3.5-2.7,5.3-6.3,5.3-10.7C457.6,47.1,456.2,44.1,453.5,42z
	"/>
<path class="st1" d="M563.9,25.2c-2.2-2.1-4.8-3.8-7.8-5c-3-1.2-6.2-1.8-9.7-1.8c-3.5,0-6.7,0.6-9.7,1.8c-3,1.2-5.6,2.8-7.8,5
	c-2.2,2.1-3.9,4.6-5.2,7.5c-1.3,2.9-1.9,6-1.9,9.4c0,3.3,0.6,6.5,1.9,9.3c1.3,2.9,3,5.4,5.2,7.5c2.2,2.1,4.8,3.8,7.8,5
	c3,1.2,6.2,1.8,9.7,1.8c3.5,0,6.7-0.6,9.7-1.8c3-1.2,5.6-2.9,7.8-5c2.2-2.1,3.9-4.6,5.2-7.5c1.3-2.9,1.9-6,1.9-9.3
	c0-3.4-0.6-6.5-1.9-9.4C567.8,29.8,566.1,27.3,563.9,25.2z M559.3,47.9c-0.7,1.8-1.6,3.3-2.9,4.7c-1.2,1.3-2.7,2.4-4.4,3.1
	c-1.7,0.7-3.6,1.1-5.6,1.1c-2.1,0-4-0.4-5.7-1.1c-1.7-0.7-3.2-1.8-4.4-3.1c-1.2-1.3-2.2-2.9-2.9-4.7c-0.7-1.8-1-3.7-1-5.8
	s0.3-4,1-5.9c0.7-1.8,1.6-3.4,2.9-4.7c1.2-1.3,2.7-2.3,4.4-3.1c1.7-0.7,3.6-1.1,5.7-1.1c2,0,3.9,0.4,5.6,1.1
	c1.7,0.7,3.2,1.8,4.4,3.1c1.2,1.3,2.2,2.9,2.9,4.7c0.7,1.8,1,3.8,1,5.9S560,46.2,559.3,47.9z"/>
<path class="st1" d="M621.6,29.5c-1.1-2.4-2.6-4.4-4.5-6c-1.9-1.6-4.2-2.9-6.9-3.8c-2.7-0.9-5.6-1.3-8.8-1.3c-3.2,0-6.1,0.4-8.7,1.3
	c-2.7,0.9-4.9,2.1-6.9,3.8c-1.9,1.6-3.5,3.6-4.6,6c-1.1,2.4-1.7,5-1.7,8v25.1c0,1.1,0.9,2,2,2h6.2c1.1,0,2-0.9,2-2V40.1
	c0-4.1,1-7.1,2.9-9.3c1.9-2.1,4.8-3.2,8.7-3.2c3.8,0,6.7,1.1,8.7,3.2c2,2.1,3,5.2,3,9.3v22.5c0,1.1,0.9,2,2,2h6.2c1.1,0,2-0.9,2-2
	V37.5C623.2,34.5,622.7,31.9,621.6,29.5z"/>
<path class="st1" d="M355.2,18.5H349c-1.1,0-2,0.9-2,2V43c0,4.1-1,7.1-2.9,9.3c-1.9,2.1-4.8,3.2-8.7,3.2c-3.8,0-6.7-1.1-8.7-3.2
	c-2-2.1-3-5.2-3-9.3V31.1V20.5c0-1.1-0.9-2-2-2h-6.2c-1.1,0-2,0.9-2,2v10.6v14.5c0,3,0.5,5.6,1.6,8c1.1,2.4,2.6,4.4,4.5,6
	c1.9,1.6,4.2,2.9,6.9,3.8c2.7,0.9,5.6,1.3,8.8,1.3c3.2,0,6.1-0.4,8.7-1.3c2.7-0.9,4.9-2.1,6.9-3.8c1.9-1.6,3.5-3.6,4.6-6
	c1.1-2.4,1.7-5,1.7-8V20.5C357.2,19.4,356.3,18.5,355.2,18.5z"/>
<path class="st1" d="M493.6,56.2c-0.5-0.9-1.6-1.2-2.6-0.8c-0.5,0.2-1,0.4-1.6,0.7c-1.5,0.5-3.1,0.8-4.8,0.8c-1.1,0-2.1-0.1-3.1-0.4
	c-1-0.2-1.8-0.7-2.6-1.3c-0.7-0.6-1.3-1.4-1.7-2.4c-0.4-1-0.6-2.3-0.6-3.8V29.1h16.6c1.1,0,2-0.9,2-2v-5.4c0-1.1-0.9-2-2-2h-16.6V9
	c0-1.1-0.9-2-2-2h-6.2c-1.1,0-2,0.9-2,2v42.1c0,4.4,1.3,8,4,10.7c2.7,2.7,6.6,4.1,11.9,4.1c1.8,0,3.5-0.2,5.1-0.5
	c1.6-0.3,3-0.7,4.2-1.2c1.3-0.5,2.3-1,3.2-1.5l0.4-0.2c0.9-0.6,1.2-1.8,0.6-2.7L493.6,56.2z"/>
<path class="st1" d="M404.4,22.9c-1.6-1.3-3.7-2.4-6-3.2c-2.4-0.8-5.1-1.2-8.2-1.2c-3.5,0-6.8,0.6-9.7,1.7c-3,1.2-5.5,2.8-7.7,4.9
	c-2.2,2.1-3.9,4.7-5.1,7.6c-1.2,3-1.8,6.2-1.8,9.8c0,3.8,0.6,7.1,1.9,10c1.3,2.9,3,5.3,5.1,7.3c2.2,2,4.7,3.5,7.6,4.5
	c2.9,1,6,1.5,9.3,1.5c2.4,0,4.6-0.2,6.6-0.5c2-0.4,3.8-0.8,5.3-1.3c0.6-0.2,1.2-0.4,1.7-0.6c0.8-0.3,1.5-0.6,2.1-0.9
	c0.4-0.2,0.8-0.5,1.2-0.6c0.6-0.3,0.8-1.1,0.5-1.7l-2.6-5l0,0c-0.3-0.6-1-0.8-1.6-0.5l-0.6,0.3c-0.7,0.4-1.6,0.7-2.7,1.1
	c-1,0.4-2.2,0.7-3.5,0.9c-1.3,0.2-2.7,0.4-4.3,0.4c-4.6,0-8.1-0.9-10.6-2.8c-2.5-1.9-3.9-4.3-4.4-7.4c1.2,0.1,2.3,0.1,3.4,0.1
	c1,0,2.2,0,3.4,0c5.1,0,9.4-0.3,12.7-1c3.3-0.7,6-1.6,8-2.9c2-1.2,3.3-2.7,4.1-4.4c0.8-1.7,1.2-3.6,1.2-5.7c0-2-0.4-3.9-1.3-5.7
	C407.3,25.8,406,24.2,404.4,22.9z M398.9,35.7c-0.4,0.8-1.1,1.6-2.2,2.2c-1.1,0.7-2.7,1.2-4.7,1.6c-2,0.4-4.7,0.6-8,0.6
	c-1.3,0-2.5,0-3.8,0c-1.3,0-2.6,0-3.9-0.1c0.1-1.7,0.4-3.4,1-5.1c0.6-1.7,1.5-3.1,2.6-4.4c1.1-1.3,2.5-2.3,4.2-3.1
	c1.7-0.8,3.6-1.2,5.8-1.2c2.7,0,4.9,0.6,6.8,1.7c1.8,1.1,2.7,2.8,2.7,5.1C399.4,34,399.3,34.9,398.9,35.7z"/>
<path class="st1" d="M54.9,6c0,0-3.8-2.3-4.4-2.6c-0.3-0.2-0.6-0.3-0.9-0.5c-1-0.5-2.3-0.9-3.8-1.4c-1.5-0.4-3.2-0.8-5.2-1.1
	C38.6,0.1,36.4,0,34,0c-3.2,0-6.2,0.4-9.1,1c-1.5,0.3-3,0.7-4.4,1.2c-4.1,1.5-7.7,3.6-10.8,6.4c-3,2.8-5.4,6.2-7.2,10.2
	C0.9,22.9,0,27.4,0,32.4c0,5.3,0.9,10,2.6,14c1.8,4,4.2,7.4,7.3,10.1c3.1,2.7,6.9,4.7,11.2,6.1c4.4,1.4,9.1,2.1,14.3,2.1
	c2.3,0,4.6-0.1,6.7-0.2c2.1-0.1,4.1-0.3,5.9-0.4c1.8-0.2,3.3-0.3,4.5-0.5l0.2,0c1.4-0.2,2.4-1.3,2.4-2.7V34.8c0-4.1-2.1-6.1-6.3-6.1
	H32c-1.1,0-2.2,0.7-2.6,1.8c-0.3,0.9-0.5,1.9-0.5,3.1c0,3.1,1.8,4.7,5.3,4.7H42c1.5,0,2.8,1.2,2.8,2.8v11c0,1.4-1.1,2.6-2.5,2.8
	c-0.2,0-0.3,0-0.5,0C40.1,54.9,38.2,55,36,55c-3.7,0-7.1-0.4-10.1-1.3c-3-0.9-5.6-2.2-7.8-4.1c-2.2-1.8-3.9-4.2-5.1-7
	c-1.2-2.9-1.8-6.3-1.8-10.2c0-3.5,0.6-6.7,1.7-9.5c1.1-2.8,2.7-5.2,4.7-7.2c2-2,4.4-3.5,7.2-4.5s5.8-1.6,9.1-1.6
	c2.1,0,4.1,0.2,5.9,0.6l0.1,0c2.4,0.5,4.7,1.5,6.7,2.8l3,1.8c0.2,0.1,0.4,0.2,0.6,0.2c0.8,0.2,1.7-0.2,2.1-0.9l2.7-4.5l0.5-0.8
	C56.1,7.8,55.8,6.6,54.9,6z"/>
<path class="st1" d="M223.7,4.2h-6.5c-1.1,0-2,0.9-2.1,2l0,19.1c-1.6-2-3.8-3.7-6.5-5.2c-2.8-1.4-6-2.1-9.6-2.1
	c-3.5,0-6.7,0.6-9.6,1.8c-2.9,1.2-5.5,3-7.7,5.2c-2.2,2.2-3.9,4.9-5.1,7.9c-1.2,3.1-1.8,6.4-1.8,10.1c0,3.6,0.6,6.9,1.9,10
	c1.3,3.1,3.1,5.7,5.3,7.9c2.3,2.2,5,3.9,8.1,5.2c3.1,1.3,6.5,1.9,10.3,1.9c3.7,0,7-0.6,10.1-1.7c3.1-1.1,5.8-2.8,8-5.1
	c2.3-2.3,4-5.1,5.3-8.5c1.3-3.4,1.9-7.4,1.9-12V6.3C225.8,5.2,224.9,4.2,223.7,4.2z M214,49.3c-0.7,1.9-1.7,3.5-3,4.8
	c-1.3,1.3-2.8,2.4-4.6,3.1c-1.8,0.8-3.8,1.1-5.9,1.1c-2.2,0-4.2-0.4-6-1.2c-1.8-0.8-3.3-1.9-4.6-3.2c-1.3-1.4-2.3-3-3-4.8
	c-0.7-1.9-1-3.9-1-6.1c0-2.2,0.3-4.3,1-6.1c0.7-1.9,1.7-3.5,3-4.9c1.3-1.4,2.8-2.4,4.6-3.2c1.8-0.8,3.7-1.2,6-1.2
	c2.1,0,4.1,0.4,5.9,1.2c1.8,0.8,3.3,1.9,4.6,3.3c1.3,1.4,2.3,3,3,4.9c0.7,1.9,1.1,3.9,1.1,6C215.1,45.4,214.8,47.4,214,49.3z"/>
<path class="st1" d="M278.2,21.4c-0.9-0.4-2,0.1-2.4,1l-5.9,14.7l-5.9-3.8c-0.7-0.4-1.6-0.4-2.3,0.2c-0.8,0.7-0.8,1.9-0.2,2.6l7.1,8
	c0.2,0.2,0.4,0.4,0.7,0.6c0.6,0.4,1.3,0.6,2,0.5c1.6,0.1,3-0.9,3.4-2.5l4.6-19.1C279.5,22.6,279,21.7,278.2,21.4z"/>
<path class="st1" d="M295.2,11c-3-2.9-6.5-5.2-10.5-6.9c-4-1.7-8.3-2.5-13-2.5c-4.7,0-9,0.8-13,2.5c-4,1.7-7.5,3.9-10.5,6.9
	c-3,2.9-5.3,6.4-7,10.3c-1.7,4-2.5,8.3-2.5,12.9c0,4.6,0.8,8.9,2.5,12.9c1.7,4,4,7.4,7,10.3c2.5,2.4,5.3,4.4,8.4,5.9
	c0.7,0.3,1.3,0.7,2,0.9c4,1.6,8.3,2.5,13,2.5l0,0c4.7,0,9-0.8,13-2.5c3.2-1.3,6.1-3.1,8.7-5.3c0.6-0.5,1.2-1,1.8-1.6
	c2.1-2.1,3.8-4.4,5.3-6.9c0.6-1.1,1.2-2.2,1.7-3.4c1.7-4,2.5-8.3,2.5-12.9c0-4.6-0.8-8.9-2.5-12.9S298.2,14,295.2,11z M291.8,43.4
	c-1.1,2.8-2.6,5.2-4.6,7.2c-1.9,2-4.2,3.6-6.9,4.7c-2.6,1.1-5.5,1.7-8.7,1.7s-6-0.6-8.7-1.7c-2.6-1.1-4.9-2.7-6.9-4.7
	c-2-2-3.5-4.4-4.6-7.2c-1.1-2.8-1.6-5.8-1.6-9.1c0-3.3,0.5-6.4,1.6-9.2c1.1-2.8,2.6-5.2,4.6-7.2c2-2,4.3-3.6,6.9-4.7
	c2.7-1.1,5.5-1.7,8.7-1.7s6,0.6,8.7,1.7c2.7,1.1,4.9,2.7,6.9,4.7c1.9,2,3.4,4.4,4.6,7.2c1.1,2.8,1.7,5.9,1.7,9.2
	C293.4,37.6,292.9,40.6,291.8,43.4z"/>
<path class="st1" d="M300.5,58.4c-0.4-0.1-0.8,0.1-1.1,0.4c-0.8,1-1.6,1.9-2.4,2.7c-0.6,0.6-1.2,1.1-1.8,1.6c-2.5,2.2-5.4,4-8.6,5.3
	c-4,1.7-8.3,2.5-13,2.6l0,0c-3.3,0-6.5-0.4-9.4-1.2l-0.3-0.1c-1.2-0.3-2,1.1-1.2,1.9L291,98.9l0.3,0.3c1.8,1.7,4.7,0.7,5-1.8
	l5.2-37.6C301.6,59,301.1,58.5,300.5,58.4z"/>
</svg>
